<svg width="268" height="268" viewBox="0 0 268 268" fill="none" xmlns="http://www.w3.org/2000/svg">
<rect width="268" height="268" rx="134" fill="black"/>
<path d="M79.6108 124.074C79.3523 123.02 78.9446 122.095 78.3878 121.3C77.831 120.484 77.1349 119.798 76.2997 119.241C75.4844 118.665 74.5298 118.237 73.4361 117.959C72.3622 117.661 71.179 117.511 69.8864 117.511C67.1023 117.511 64.7259 118.178 62.7571 119.51C60.8082 120.842 59.3168 122.761 58.2827 125.267C57.2685 127.773 56.7614 130.795 56.7614 134.335C56.7614 137.915 57.2486 140.977 58.223 143.523C59.1974 146.068 60.6491 148.017 62.5781 149.369C64.5071 150.722 66.9034 151.398 69.767 151.398C72.2926 151.398 74.3906 151.03 76.0611 150.294C77.7514 149.558 79.0142 148.514 79.8494 147.162C80.6847 145.81 81.1023 144.219 81.1023 142.389L83.9659 142.688H70.0057V130.875H97.0909V139.347C97.0909 144.915 95.9077 149.678 93.5412 153.635C91.1946 157.572 87.9531 160.595 83.8168 162.703C79.7003 164.791 74.9773 165.835 69.6477 165.835C63.7017 165.835 58.4815 164.572 53.9872 162.047C49.4929 159.521 45.983 155.922 43.4574 151.249C40.9517 146.575 39.6989 141.017 39.6989 134.574C39.6989 129.523 40.4645 125.048 41.9957 121.151C43.5469 117.253 45.6946 113.962 48.4389 111.277C51.1832 108.572 54.3551 106.534 57.9545 105.162C61.554 103.77 65.4119 103.074 69.5284 103.074C73.1477 103.074 76.5085 103.591 79.6108 104.625C82.733 105.639 85.4872 107.091 87.8736 108.98C90.2798 110.849 92.2188 113.067 93.6903 115.632C95.1619 118.197 96.0568 121.011 96.375 124.074H79.6108ZM114.012 165.955C111.705 165.955 109.726 165.149 108.076 163.538C106.445 161.908 105.64 159.929 105.659 157.602C105.64 155.335 106.445 153.396 108.076 151.786C109.726 150.175 111.705 149.369 114.012 149.369C116.199 149.369 118.128 150.175 119.799 151.786C121.489 153.396 122.344 155.335 122.364 157.602C122.344 159.153 121.936 160.565 121.141 161.838C120.365 163.091 119.351 164.095 118.098 164.851C116.846 165.587 115.483 165.955 114.012 165.955ZM158.92 165H141.022L161.187 103.909H183.858L204.022 165H186.125L172.761 120.733H172.284L158.92 165ZM155.579 140.898H189.227V153.307H155.579V140.898ZM226.491 103.909V165H209.906V103.909H226.491Z" fill="white"/>
</svg>
